# xmcd
#
# Track frame offsets: 
#        150
#        14654
#        30479
#        44246
#        60795
#        74222
#        89536
#        105729
#        119802
#        138909
#        155012
#        173462
#        187228
#        203075
#
# Disc length: 2914 seconds
#
# Revision: 3
# Processed by: cddbd v1.5.2PL0 Copyright (c) Steve Scherf et al.
# Submitted via: ExactAudioCopy v0.95a5
#
DISCID=d10b600e
DTITLE=Various Artist - HOT HITS COUNTRY VOL 56
DYEAR=1900
DGENRE=Country
TTITLE0=Lonestar - Runnin Away With My Heart
TTITLE1=Brooks and Dunn - I Am That Man
TTITLE2=Marty Stuart and Travis Tritt - Honky Tonkin's What I Do Best
TTITLE3=Randy Travis - Are We In Trouble Now
TTITLE4=Blackhawk - Big Guitar
TTITLE5=Pam Tillis - It's Lonely Out There
TTITLE6=James Bonamy - I Don't Think I Will
TTITLE7=Mark Willis - Jacob's Ladder
TTITLE8=Doug Supernaw - You Still Got Me
TTITLE9=Rick Trevino - Learning As You Go
TTITLE10=Great Plains - Dancin With The Wind
TTITLE11=Frazier River - Tangled Up In Texas
TTITLE12=Mavericks - Missing You
TTITLE13=Jeff Foxworthy w Alan Jackson - Redneck Games
EXTD=
EXTT0=
EXTT1=
EXTT2=
EXTT3=
EXTT4=
EXTT5=
EXTT6=
EXTT7=
EXTT8=
EXTT9=
EXTT10=
EXTT11=
EXTT12=
EXTT13=
PLAYORDER=
